<svg width="16" height="16" viewBox="0 0 16 16" fill="none" xmlns="http://www.w3.org/2000/svg">
<g clip-path="url(#clip0_625_4216)">
<path d="M9.22394 11.0455C9.36162 11.1087 9.51674 11.1232 9.66373 11.0865C9.81072 11.0497 9.94083 10.964 10.0326 10.8435L10.2693 10.5335C10.3935 10.3679 10.5545 10.2335 10.7397 10.1409C10.9248 10.0484 11.1289 10.0002 11.3359 10.0002H13.3359C13.6896 10.0002 14.0287 10.1406 14.2787 10.3907C14.5288 10.6407 14.6693 10.9799 14.6693 11.3335V13.3335C14.6693 13.6871 14.5288 14.0263 14.2787 14.2763C14.0287 14.5264 13.6896 14.6668 13.3359 14.6668C10.1533 14.6668 7.10109 13.4025 4.85066 11.1521C2.60022 8.90167 1.33594 5.84943 1.33594 2.66683C1.33594 2.31321 1.47641 1.97407 1.72646 1.72402C1.97651 1.47397 2.31565 1.3335 2.66927 1.3335H4.66927C5.02289 1.3335 5.36203 1.47397 5.61208 1.72402C5.86213 1.97407 6.0026 2.31321 6.0026 2.66683V4.66683C6.0026 4.87382 5.95441 5.07797 5.86184 5.26311C5.76927 5.44825 5.63487 5.6093 5.46927 5.7335L5.15727 5.9675C5.03488 6.06095 4.94862 6.19389 4.91313 6.34373C4.87765 6.49357 4.89513 6.65108 4.9626 6.7895C5.87372 8.64007 7.37222 10.1367 9.22394 11.0455Z" stroke="#B84C32" stroke-width="1.33333" stroke-linecap="round" stroke-linejoin="round"/>
</g>
<defs>
<clipPath id="clip0_625_4216">
<rect width="16" height="16" fill="white"/>
</clipPath>
</defs>
</svg>
